HIERARCHY
ROOT Hips
{
	OFFSET 0.00000 0.00000 0.00000
	CHANNELS 6 Xposition Yposition Zposition Zrotation Yrotation Xrotation 
	JOINT LHipJoint
	{
		OFFSET 0 0 0
		CHANNELS 3 Zrotation Yrotation Xrotation
		JOINT LeftHip
		{
			OFFSET 1.28366 -1.58472 0.87544
			CHANNELS 3 Zrotation Yrotation Xrotation
			JOINT LeftKnee
			{
				OFFSET 2.18587 -6.00562 0.00000
				CHANNELS 3 Zrotation Yrotation Xrotation
				JOINT LeftAnkle
				{
					OFFSET 2.39085 -6.56880 0.00000
					CHANNELS 3 Zrotation Yrotation Xrotation
					JOINT LeftToe
					{
						OFFSET 0.12003 -0.32979 2.03101
						CHANNELS 3 Zrotation Yrotation Xrotation
						End Site
						{
							OFFSET 0.00000 -0.00000 1.04074
						}
					}
				}
			}
		}
	}
	JOINT RHipJoint
	{
		OFFSET 0 0 0
		CHANNELS 3 Zrotation Yrotation Xrotation
		JOINT RightHip
		{
			OFFSET -1.21795 -1.58472 0.87544
			CHANNELS 3 Zrotation Yrotation Xrotation
			JOINT RightKnee
			{
				OFFSET -2.22714 -6.11902 0.00000
				CHANNELS 3 Zrotation Yrotation Xrotation
				JOINT RightAnkle
				{
					OFFSET -2.40306 -6.60235 0.00000
					CHANNELS 3 Zrotation Yrotation Xrotation
					JOINT RightToe
					{
						OFFSET -0.15519 -0.42640 1.91430
						CHANNELS 3 Zrotation Yrotation Xrotation
						End Site
						{
							OFFSET -0.00000 -0.00000 0.99082
						}
					}
				}
			}
		}
	}
	JOINT lowerback
	{
		OFFSET 0 0 0
		CHANNELS 3 Zrotation Yrotation Xrotation
		JOINT Chest
		{
			OFFSET 0.01180 1.76430 -0.06387
			CHANNELS 3 Zrotation Yrotation Xrotation
			JOINT Chest2
			{
				OFFSET -0.00388 1.74651 0.09536
				CHANNELS 3 Zrotation Yrotation Xrotation
				JOINT lowerneck
				{
					OFFSET 0 0 0
					CHANNELS 3 Zrotation Yrotation Xrotation
					JOINT Neck
					{
						OFFSET 0.04111 1.46174 0.14397
						CHANNELS 3 Zrotation Yrotation Xrotation
						JOINT Head
						{
							OFFSET 0.00502 1.44580 -0.31711
							CHANNELS 3 Zrotation Yrotation Xrotation
							End Site
							{
								OFFSET -0.00395 1.49251 -0.12327
							}
						}
					}
				}
				JOINT LeftCollar
				{
					OFFSET 0 0 0
					CHANNELS 3 Zrotation Yrotation Xrotation
					JOINT LeftShoulder
					{
						OFFSET 2.70917 1.34870 -0.15417
CHANNELS 3 Zrotation Xrotation Yrotation
						JOINT LeftElbow
						{
OFFSET 0 -4.466100 -0.000000
CHANNELS 3 Zrotation Xrotation Yrotation
							JOINT LeftWrist
							{
OFFSET 0 -3.414140 0.000000
CHANNELS 3 Zrotation Xrotation Yrotation
								JOINT lhand
								{
									OFFSET 0 0 0
CHANNELS 3 Zrotation Xrotation Yrotation
									JOINT LFingers
									{
OFFSET 0 -0.328300 0.000000
CHANNELS 3 Zrotation Xrotation Yrotation
										End Site
										{
OFFSET 0 -0.264680 0.000000
										}
									}
								}
								JOINT LThumb
								{
OFFSET 0 0.000000 0.000000
CHANNELS 3 Zrotation Xrotation Yrotation
									End Site
									{
OFFSET 0 -0.268720 0.268720
									}
								}
							}
						}
					}
				}
				JOINT RightCollar
				{
					OFFSET 0 0 0
					CHANNELS 3 Zrotation Yrotation Xrotation
					JOINT RightShoulder
					{
						OFFSET -3.06316 1.13725 -0.10883
CHANNELS 3 Zrotation Xrotation Yrotation
						JOINT RightElbow
						{
OFFSET 0 -4.404310 0.000000
CHANNELS 3 Zrotation Xrotation Yrotation
							JOINT RightWrist
							{
OFFSET 0 -3.046880 0.000000
CHANNELS 3 Zrotation Xrotation Yrotation
								JOINT rhand
								{
									OFFSET 0 0 0
CHANNELS 3 Zrotation Xrotation Yrotation
									JOINT RFingers
									{
OFFSET 0 -0.500490 0.000000
CHANNELS 3 Zrotation Xrotation Yrotation
										End Site
										{
OFFSET 0 -0.403510 0.000000
										}
									}
								}
								JOINT RThumb
								{
OFFSET 0 0.000000 0.000000
CHANNELS 3 Zrotation Xrotation Yrotation
									End Site
									{
OFFSET 0 -0.409670 0.409670
									}
								}
							}
						}
					}
				}
			}
		}
	}
}
MOTION
Frames: 6
Frame Time: .0083333
40.3108 13.5187 16.5668 368.0440 -55.4578 363.3430 0.0000 0.0000 0.0000 -5.9700 2.8217 -21.4959 6.2637 14.6791 46.0309 2.8098 -12.0961 -30.2576 3.7847 -11.8682 -35.2674 0.0000 0.0000 0.0000 -6.2511 -5.8023 -53.7933 -27.7466 -18.4957 113.2102 -1.3683 4.0539 -21.1557 -0.0906 1.9411 -5.3428 -2.1961 6.8995 9.2653 -3.7420 8.5705 -6.0151 -4.4533 4.0788 -11.4307 -1.1848 -5.7982 -16.0137 1.6320 -7.7180 8.4640 0.0001 -3.6923 5.2475 0.0000 -0.0000 0.0000 33.9724 -6.2949 -23.2585 103.3215 -59.3187 71.5104 80.2575 32.3 -50.3212 0.0 0.0 0.0 -7.1250 0.0 0.0 157.4845 -67.4225 167.603 0.0000 -0.0000 0.0000 -40.1224 -8.3549 56.1062 -122.2213 -55.6884 -87.5005 -63.3291 -46.6996 -36.2231 0.0 0.0 0.0 7.1250 0.0 -0.0 -14.8736 -27.0164 -20.4647
40.1378 13.5961 16.5154 367.8760 -55.3068 363.4300 0.0000 0.0000 0.0000 -5.5748 3.0330 -19.6134 5.5816 14.0102 43.2784 2.6187 -11.4095 -29.1667 3.9535 -12.0982 -36.0804 0.0000 0.0000 0.0000 -7.0894 -5.4586 -54.1120 -27.3669 -18.6457 112.0180 -1.2256 4.4935 -19.9230 -0.1032 2.0720 -5.7046 -2.0765 6.6748 9.2984 -3.6081 8.2948 -6.1249 -4.3400 3.9384 -11.5888 -1.5423 -6.3379 -15.6517 2.1226 -8.4242 8.1707 0.1577 -4.0206 5.1429 0.0000 0.0000 0.0000 35.577 -5.7559 -24.0478 106.8875 -58.8945 74.5707 79.667 33.849 -49.4978 0.0 0.0 0.0 -7.1250 0.0 0.0 155.4890 -68.0094 166.1299 0.0000 0.0000 0.0000 -40.3704 -8.0783 53.556 -120.9682 -56.0464 -86.4632 -63.0947 -48.5716 -35.7276 0.0 0.0 0.0 7.1250 0.0 -0.0 -14.9692 -26.3273 -20.5294
39.9567 13.6828 16.4631 367.6150 -55.1770 363.5920 0.0000 0.0000 0.0000 -5.1542 3.1389 -17.5424 4.8843 13.2523 40.3204 2.3988 -10.3861 -27.8636 4.1401 -12.3445 -36.9617 0.0000 0.0000 0.0000 -7.7388 -5.0390 -54.2743 -26.8728 -18.8276 110.4798 -1.0737 4.8068 -18.5733 -0.1113 2.1514 -5.9241 -1.8815 6.4223 9.2784 -3.4594 7.9960 -6.2576 -4.2405 3.7828 -11.7327 -1.8896 -6.8670 -15.3027 2.6096 -9.1212 7.9654 0.3114 -4.3446 5.0736 0.0000 0.0000 0.0000 37.2844 -5.157 -24.9741 110.3605 -58.3742 77.5364 78.9693 35.4079 -48.5169 0.0 0.0 0.0 -7.1250 0.0 0.0 152.9517 -68.7129 164.1931 0.0000 0.0000 0.0000 -40.7071 -7.9748 50.8837 -119.1778 -56.5251 -84.9739 -62.5584 -50.303 -35.1703 0.0 0.0 0.0 7.1250 0.0 -0.0 -14.9348 -25.3318 -20.3693
39.7676 13.7777 16.4094 367.2650 -55.0593 363.8350 0.0000 0.0000 0.0000 -4.7051 3.1406 -15.2993 4.1826 12.3995 37.1603 2.1359 -9.1138 -26.2458 4.3094 -12.5611 -37.7469 0.0000 0.0000 0.0000 -8.2051 -4.5611 -54.2860 -26.2656 -19.0315 108.6083 -0.9189 4.9738 -17.1302 -0.1128 2.1658 -5.9640 -1.6274 6.1490 9.1982 -3.2929 7.6814 -6.4128 -4.1443 3.6163 -11.8613 -2.2342 -7.3869 -14.9753 3.0881 -9.8097 7.8496 0.4600 -4.6645 5.0410 -0.0000 -0.0000 0.0000 39.0773 -4.5247 -26.05 113.6679 -57.7738 80.3438 78.1874 37.0394 -47.3625 0.0 0.0 0.0 -7.1250 0.0 0.0 149.7387 -69.5157 161.6621 -0.0000 -0.0000 0.0000 -41.1398 -8.0427 48.1028 -116.7735 -57.1102 -82.9616 -61.6252 -51.9107 -34.6776 0.0 0.0 0.0 7.1250 0.0 -0.0 -14.6691 -24.0974 -19.8455
39.5741 13.8677 16.3526 366.8480 -54.9365 364.1490 0.0000 0.0000 0.0000 -4.2158 3.0273 -12.9544 3.5045 11.4701 33.8823 1.8274 -7.7101 -24.2448 4.4209 -12.7004 -38.2569 0.0000 0.0000 0.0000 -8.5661 -4.0730 -54.2342 -25.5791 -19.2368 106.5142 -0.7664 5.0322 -15.6087 -0.1065 2.1039 -5.7929 -1.3748 5.8591 9.0073 -3.0754 7.3527 -6.5617 -3.9747 3.4484 -11.9242 -2.6019 -7.8918 -14.6755 3.5361 -10.4737 7.7911 0.6021 -4.9749 5.0353 0.0000 -0.0000 0.0000 40.8779 -3.9106 -27.2572 116.7480 -57.116 82.9402 77.2698 38.675 -46.0085 0.0 0.0 0.0 -7.1250 0.0 0.0 145.5699 -70.4518 158.2467 0.0000 -0.0000 0.0000 -41.7447 -8.3377 45.2173 -113.6222 -57.7828 -80.3051 -60.33 -53.3886 -34.2331 0.0 0.0 0.0 7.1250 0.0 -0.0 -14.1971 -22.6548 -19.0019
39.3704 13.9733 16.2940 366.3890 -54.7966 364.5210 0.0000 0.0000 0.0000 -3.7177 2.8196 -10.4869 2.8556 10.4576 30.4716 1.4821 -6.2490 -21.8236 4.4434 -12.7281 -38.3590 0.0000 0.0000 0.0000 -8.7428 -3.5592 -53.9601 -24.7631 -19.4471 104.0506 -0.6233 4.8978 -14.0579 -0.0932 1.9690 -5.4199 -1.1379 5.5527 8.7305 -2.8143 7.0047 -6.7155 -3.7371 3.2760 -11.9492 -2.9805 -8.3796 -14.4143 3.9451 -11.1127 7.8030 0.7323 -5.2748 5.0608 0.0000 -0.0000 0.0000 42.6904 -3.3219 -28.5887 119.5842 -56.4197 85.3128 76.1672 40.1574 -44.4093 0.0 0.0 0.0 -7.1250 0.0 0.0 139.9696 -71.536 153.4626 0.0000 -0.0000 0.0000 -42.4956 -8.8647 42.2617 -109.5885 -58.4993 -76.8787 -58.6906 -54.6318 -33.7523 0.0 0.0 0.0 7.1250 0.0 -0.0 -13.5602 -20.956 -17.8981
